<svg xmlns="http://www.w3.org/2000/svg" width="256" height="256" fill="none">
  <path fill="#0196D4" d="M224 0c17.673 0 32 14.327 32 32v192c0 17.673-14.327 32-32 32H32c-17.673 0-32-14.327-32-32V32C0 14.327 14.327 0 32 0h192ZM51.845 46.071c-6.584-.145-9.64-.21-11.052 1.279-1.22 1.285-1.213 3.734-1.2 8.303.004.545.004 1.117.004 1.722v8.161l-3.302.585c-4.59.812-10.236 2.182-11.34 2.75-.25.129-.467.175-.657.273-1.141.601-1.284 3.106-1.297 36.824v91.803l.708.901c.196.247.325.463.491.649 1.088 1.255 3.628 1.255 36.4 1.248h48.068l2.316 2.314c3.601 3.592 8.17 5.973 13.031 6.781 7.759 1.292 15.373-1.174 21.012-6.802l2.3-2.293h48.332c32.353.007 35.232.006 36.225-1.36.166-.23.281-.497.47-.812.617-1.007.637-3.002.64-64.052 0-5.601.001-10.719.004-15.393.014-45.417.013-49.28-1.477-49.983-.294-.139-.643-.155-1.06-.338-.81-.359-4.302-1.215-7.767-1.901l-6.296-1.249v-7.964c0-.596 0-1.16.003-1.699.014-4.657.021-7.135-1.215-8.434-1.413-1.482-4.445-1.425-10.941-1.296-.653.013-1.344.027-2.072.037-11.231.196-15.469.477-24.048 1.587-18.293 2.367-35.628 7.985-47.709 15.463-2.012 1.245-2.602 1.471-3.049 1.167-1.805-1.235-5.727-3.467-8.514-4.84-17.416-8.598-38.1-12.866-64.86-13.387-.756-.013-1.47-.03-2.148-.044ZM39.597 125.2c.003 50.507.017 51.546.664 52.608 1.178 1.931 1.646 2.015 12.207 2.252 24.586.548 43.323 3.869 59.441 10.539 3.018 1.248 8.783 4.096 13.04 6.44 2.757 1.519 3.489 1.437 7.432-.836 6.96-4.011 16.755-7.924 25.852-10.329 14.046-3.71 27.33-5.422 45.234-5.828 10.686-.244 11.282-.362 12.339-2.476.555-1.113.592-4.326.592-52.508V73.734l.762.011c.42.007 2.361.355 4.319.777l3.556.768.084 58.581.089 58.58h-40.495c-3.584 0-6.866.001-9.863-.003-28.668-.013-31.855-.017-33.027 1.519-.267.352-.434.784-.772 1.315-1.535 2.395-3.045 3.657-6.185 5.165-2.438 1.17-2.882 1.269-6.187 1.37-2.849.088-3.97-.027-5.613-.561-3.237-1.059-5.998-3.041-7.942-5.699-.931-1.279-2.083-2.5-2.558-2.713-.634-.291-11.415-.393-41.317-.393H30.787l.089-58.597.084-58.594 2.71-.572c1.49-.314 3.434-.673 4.318-.794l1.609-.224v51.529Zm17.19-70.97c12.253.291 20.298 1.143 31.244 3.304 13 2.567 25.606 7.438 34.463 13.306l1.44.958.003 14.58.003 14.585 4.058 3.828 4.058 3.825.088-18.534.087-18.535 1.694-1.112c4.278-2.814 12.274-6.606 18.12-8.595 14.059-4.786 29.094-7.231 46.825-7.613l9.4-.206v118.138l-6.69.007c-23.865.024-50.076 5.452-66.724 13.816l-2.794 1.404v-19.174l-7.959-7.87-.169 13.481-.17 13.482-2.709-1.364c-9.02-4.539-22.443-8.699-35.215-10.918-10.134-1.762-16.902-2.383-33.457-3.077l-4.657-.193V54.012l9.06.218ZM193.69 76.242c-6.133-5.628-6.506-5.865-7.735-4.969-.931.68-1.934 1.949-11.601 14.706a12391.144 12391.144 0 0 1-21.826 28.733c-2.222 2.912-6.079 7.975-8.572 11.245-2.491 3.271-4.569 5.949-4.623 5.953-.047 0-3.899-4.153-8.553-9.226-8.998-9.808-10.939-11.743-11.779-11.744-.593 0-1.67 1.022-7.557 7.154-3.112 3.243-4.108 4.495-4.108 5.168 0 .639.863 1.833 3.133 4.34 5.023 5.543 22.073 23.793 25.586 27.392l.026.028c2.083 2.13 3.225 3.3 4.353 3.287 1.378-.021 2.729-1.806 5.744-5.767a17455.69 17455.69 0 0 1 18.198-23.845 6528.277 6528.277 0 0 0 10.433-13.698c2.75-3.629 7.213-9.487 9.913-13.021 2.702-3.535 7.028-9.197 9.616-12.58 2.584-3.385 4.792-6.402 4.911-6.707.345-.9-.194-1.528-5.559-6.449Z"/>
</svg>
